<svg width="48" height="20" viewBox="0 0 48 20" fill="none" xmlns="http://www.w3.org/2000/svg">
<circle cx="26.7379" cy="10.6453" r="3.3125" transform="rotate(13.0919 26.7379 10.6453)" stroke="white" stroke-opacity="0.15" stroke-width="3.68056"/>
<circle opacity="0.6" cx="26.7379" cy="10.6453" r="2.94444" transform="rotate(13.0919 26.7379 10.6453)" stroke="white" stroke-width="0.736111"/>
<path d="M1.4114 8.91203L0.368168 8.66941L5.21966 1.48437L6.24685 1.72325L7.43007 10.3117L6.38684 10.0691L5.47519 2.85898L5.41099 2.84405L1.4114 8.91203ZM2.51306 5.92084L6.7181 6.89876L6.52108 7.74597L2.31603 6.76805L2.51306 5.92084Z" fill="white"/>
<path d="M9.04709 10.6878L8.00385 10.4452L12.8553 3.26011L13.8825 3.49899L15.0658 12.0875L14.0225 11.8448L13.1109 4.63473L13.0467 4.6198L9.04709 10.6878ZM10.1487 7.69659L14.3538 8.6745L14.1568 9.52171L9.95172 8.54379L10.1487 7.69659Z" fill="white"/>
<path d="M16.3457 12.3851L18.1799 4.49837L20.9565 5.1441C21.5985 5.2934 22.101 5.52121 22.4639 5.82753C22.8275 6.13128 23.0659 6.48845 23.1791 6.89904C23.2922 7.30964 23.2948 7.74727 23.1867 8.21195C23.0786 8.67664 22.8838 9.06567 22.6023 9.37906C22.3208 9.69245 21.9515 9.90425 21.4945 10.0145C21.038 10.1221 20.4915 10.1019 19.8548 9.95382L17.6079 9.43127L17.8085 8.56866L20.0234 9.08374C20.462 9.18576 20.8295 9.20627 21.1256 9.14524C21.4245 9.08484 21.6603 8.95568 21.8332 8.75775C22.0094 8.55788 22.1342 8.30005 22.2077 7.98427C22.2811 7.66849 22.2838 7.3782 22.2157 7.11339C22.1475 6.84858 21.9933 6.62058 21.753 6.42939C21.5133 6.23562 21.1714 6.08711 20.7273 5.98384L18.9779 5.577L17.3408 12.6165L16.3457 12.3851ZM21.0377 9.74179L22.236 13.755L21.0804 13.4862L19.9142 9.48051L21.0377 9.74179Z" fill="white"/>
<path d="M38.4874 9.22106L36.6532 17.1078L35.6881 16.8834L32.6405 9.64738L32.5601 9.62868L31.12 15.821L30.1227 15.5891L31.9569 7.70233L32.922 7.92677L35.9821 15.1819L36.0625 15.2006L37.5062 8.99287L38.4874 9.22106Z" fill="white"/>
<path d="M47.0134 11.2039L45.1793 19.0906L44.2142 18.8662L41.1666 11.6302L41.0861 11.6115L39.6461 17.8038L38.6488 17.5719L40.4829 9.68514L41.448 9.90958L44.5081 17.1647L44.5886 17.1834L46.0322 10.9757L47.0134 11.2039Z" fill="white"/>
</svg>
